# xmcd CD database file
#
# Track frame offsets:
#	150
#	12337
#	33181
#	49564
#	67382
#	85857
#	104910
#	120281
#	136297
#	152526
#	174012
#	190305
#	204582
#	225566
#
# Disc length: 3248 seconds
#
# Revision: 1
# Processed by: cddbd v1.5.2PL0 Copyright (c) Steve Scherf et al.
# Submitted via: CDex 1.51
#
DISCID=b20cae0e
DTITLE=Tomas Szwed - Tomasz Szwed
DYEAR=1900
DGENRE=Country
TTITLE0=Tak jak plecy taksówkarza
TTITLE1=Gdy do ciebie jadê (jadê dalej)
TTITLE2=Zmiennik
TTITLE3=Cignik siod³owy Kamaz "Godfather 1"
TTITLE4=Poradnik poczatkujacego kierowcy
TTITLE5=Pastora³ka podrózna
TTITLE6=Podróz jesienna
TTITLE7=Kiedy pada deszcz
TTITLE8=Ty do miasta nie idz
TTITLE9=Krótka piosenka z baru "Relax"
TTITLE10=Nie mów do mnie "Misiu"
TTITLE11=Uspokój siê Gienia
TTITLE12=Zycie miast - zycie zamiast
TTITLE13=Zacznê od poczatku
EXTD=
EXTT0=
EXTT1=
EXTT2=
EXTT3=
EXTT4=
EXTT5=
EXTT6=
EXTT7=
EXTT8=
EXTT9=
EXTT10=
EXTT11=
EXTT12=
EXTT13=
PLAYORDER=
